<svg id="visual" viewBox="0 0 1536 700" width="1536" height="700" xmlns="http://www.w3.org/2000/svg" xmlns:xlink="http://www.w3.org/1999/xlink" version="1.1"><rect width="1536" height="700" fill="#ffffff"></rect><g><g transform="translate(1028 308)"><path d="M0 -100.8L100.8 0L0 100.8L-100.8 0Z" fill="#eef1ed"></path></g><g transform="translate(1387 342)"><path d="M0 -62L62 0L0 62L-62 0Z" fill="#eef1ed"></path></g><g transform="translate(104 77)"><path d="M0 -88L88 0L0 88L-88 0Z" fill="#eef1ed"></path></g><g transform="translate(1103 539)"><path d="M0 -35L35 0L0 35L-35 0Z" fill="#eef1ed"></path></g><g transform="translate(322 269)"><path d="M0 -33L33 0L0 33L-33 0Z" fill="#eef1ed"></path></g><g transform="translate(672 207)"><path d="M0 -26L26 0L0 26L-26 0Z" fill="#eef1ed"></path></g><g transform="translate(874 463)"><path d="M0 -44L44 0L0 44L-44 0Z" fill="#eef1ed"></path></g><g transform="translate(1125 38)"><path d="M0 -55L55 0L0 55L-55 0Z" fill="#eef1ed"></path></g><g transform="translate(1333 603)"><path d="M0 -73L73 0L0 73L-73 0Z" fill="#eef1ed"></path></g><g transform="translate(1471 52)"><path d="M0 -74L74 0L0 74L-74 0Z" fill="#eef1ed"></path></g><g transform="translate(862 68)"><path d="M0 -73L73 0L0 73L-73 0Z" fill="#eef1ed"></path></g><g transform="translate(113 524)"><path d="M0 -32L32 0L0 32L-32 0Z" fill="#eef1ed"></path></g><g transform="translate(691 568)"><path d="M0 -85L85 0L0 85L-85 0Z" fill="#eef1ed"></path></g><g transform="translate(420 630)"><path d="M0 -26L26 0L0 26L-26 0Z" fill="#eef1ed"></path></g><g transform="translate(440 41)"><path d="M0 -30L30 0L0 30L-30 0Z" fill="#eef1ed"></path></g><g transform="translate(516 375)"><path d="M0 -41L41 0L0 41L-41 0Z" fill="#eef1ed"></path></g><g transform="translate(879 698)"><path d="M0 -94L94 0L0 94L-94 0Z" fill="#eef1ed"></path></g><g transform="translate(110 305)"><path d="M0 -80L80 0L0 80L-80 0Z" fill="#eef1ed"></path></g><g transform="translate(1519 503)"><path d="M0 -40L40 0L0 40L-40 0Z" fill="#eef1ed"></path></g><g transform="translate(1220 228)"><path d="M0 -94L94 0L0 94L-94 0Z" fill="#eef1ed"></path></g></g></svg>